<?xml version="1.0" encoding="UTF-8"?>
<svg id="Layer_1" xmlns="http://www.w3.org/2000/svg" version="1.1" viewBox="0 0 1000 1000">
  <!-- Generator: Adobe Illustrator 30.3.0, SVG Export Plug-In . SVG Version: 2.1.3 Build 182)  -->
  <defs>
    <style>
      .st0 {
        fill: #023828;
      }
    </style>
  </defs>
  <path class="st0" d="M610.44,536.97c-1.4-7.24-5.3-13.15-10.96-16.63l-37.12-22.84,36.18-22.33c12.65-7.8,16.9-23.78,9.88-37.18-3.43-6.54-9.52-11.56-16.71-13.76-6.74-2.06-13.8-1.39-19.9,1.88l-38.51,20.69-1.52-41.21c-.53-14.61-12.04-26.08-26.42-26.6-.39-.01-.79-.02-1.19-.02-12.94.08-27.43,9.92-28.28,25.69l-2.27,42.32-43.56-21.96c-14.51-7.32-30.77.28-37.52,11.51-3.81,6.35-4.96,15-3,22.58,1.73,6.7,5.76,12.17,11.35,15.41l38.91,22.51c.8.47,1.56.99,2.34,1.64l-39.6,25c-13.77,8.69-18.37,26.43-10.49,40.39,3.7,6.56,10.1,11.5,17.55,13.54,7.76,2.13,15.93,1.07,23.01-3l40.11-23.03c.02.17.03.32.03.46l1.69,40.61c.5,12.07,8.69,23.37,19.48,26.84,2.83.92,5.68,1.41,8.46,1.51,9.2.33,17.73-3.65,23.06-11.18,6.82-9.63,7.54-21.2,7.48-29.07l-.21-32.71,33.27,17.86c15.56,8.36,30.84,5.97,39.87-6.24,4.39-5.94,6.15-14.63,4.59-22.68Z"/>
</svg>