<?xml version="1.0" encoding="UTF-8"?>
<svg id="Layer_1" xmlns="http://www.w3.org/2000/svg" version="1.1" viewBox="0 0 2000 1000">
  <!-- Generator: Adobe Illustrator 30.3.0, SVG Export Plug-In . SVG Version: 2.1.3 Build 182)  -->
  <defs>
    <style>
      .st0 {
        fill: #82E657;
      }
    </style>
  </defs>
  <path class="st0" d="M1736.25,429.27c-.09-37.78-11.11-75.54-35-104.66-46.43-56.61-126.04-67.29-190.09-33.86-20.23,10.56-38.72,13.73-58.62.74-15.42-10.06-38.79-10.79-52.43-7.49-22.76,5.51-39.51,34.02-45.25,68.15.02,3.71.03,7.42.05,11.12-.15-.79-.34-1.57-.49-2.36-39.03-56.92-97.49-88.63-166.41-88.6-64.73.02-122.86,23.31-165.8,72.6-3.52-32.66-22.73-59.11-50.96-63.77-108.2-17.87-110.98,192.51-146.14,190.98-4.59-.2-14.55-9.38-16.88-15.13l-46.07-113.44c-20.09-49.46-67.94-75.53-118.72-52.88-12.35,5.51-21.75,21.82-26.92,36.84-86.37-81.35-241.77-75.33-312.39,30.12-58.25,86.98-54.42,217.52,12.72,299.16,81.22,98.76,242.45,87.57,316.61-8.11,15.7-20.26,33.96-50.97,17.46-70.46-29.75-35.12-84.83-16.48-108.23,16.08-17.97,25.01-48.29,31.54-75.5,27.79-46.9-6.46-71.48-48.06-63.07-66.78,2.16-4.82,16.57-12.18,23.83-12.23l179.13-2.47c27.42-.38,45.4-5.65,67.03-27.66,24.06,50.92,45.1,100.97,62.66,152.23,12.54,36.59,35.23,54.79,74.17,58.19,44.84,3.91,79.19-16.05,96.44-58.51l66.58-163.84c6.56,60.96,16.24,119.02,59.36,163.25,90.29,92.62,246.07,76.71,318.82-24.02,1.36-4.54,2.58-9.2,3.84-13.82.01,3.42.03,18.41.04,28.58.01,7.83,1.26,15.62,3.9,23,4.3,12.03,12.74,28.19,28.95,38.3,8.44,5.27,16.56,7.39,18.54,7.87,12.91,3.17,26.44,2.09,39.59-2.67,16.01-5.79,28.51-21.57,35.07-41.6,29.11-88.94-16.25-230.47,46.19-273.02,20.31-13.84,44.84-8.65,56.84,13.19,8.1,14.74,11.78,32.22,11.83,49.93l.32,136.21c.15,54.39,15.07,110.9,61.48,118,42.39,6.48,78.06-38.97,77.95-82.44l-.47-212.51ZM522.4,429.89c-.42,5.04-3.99,9.31-8.77,10.97-24.65,8.56-64.35,8.18-90.41,1.7-5-1.24-8.87-5.52-9.02-10.67-.83-28.33,33.32-47.95,59.92-45.34,19.93,1.96,50.37,18.5,48.28,43.33ZM1125.46,428.87c1.84-26.4,35.12-45.08,60.93-42.68,19.74,1.84,49.96,19.24,47.08,44.11-.55,4.71-3.84,8.67-8.28,10.32-23.88,8.88-63.31,8.38-89.54,2.25-6.39-1.49-10.64-7.46-10.18-14ZM1191.7,623.42c-64.31-.86-86.01-56.28-76.28-68.37,6-7.46,12.99-12.11,23.97-12.21l215.39-3.89.1,28.63c-93.88-33.1-90.69,56.8-163.17,55.83Z"/>
</svg>