<?xml version="1.0" encoding="UTF-8"?>
<svg id="Layer_1" xmlns="http://www.w3.org/2000/svg" version="1.1" viewBox="0 0 1000 1000">
  <!-- Generator: Adobe Illustrator 30.3.0, SVG Export Plug-In . SVG Version: 2.1.3 Build 182)  -->
  <defs>
    <style>
      .st0 {
        fill: #82E657;
      }
    </style>
  </defs>
  <path class="st0" d="M838.45,468.07c-3.61-15.24-9.08-30.06-18.01-42.9-18.64-26.82-53.18-43.57-85.54-39.34-16.51,1.92-32.49,10.36-48.56,13.15-18.09,3.61-35.64-4.37-53.74-2.82-37.33,4.42-65.75,44.87-86.8,73.1-6.06,7.8-12.13,16.52-21.49,20.07-20.56,6.82-34.82-28.85-45.12-42.26-21.15-33.48-54.51-49.34-82.91-13.65-9.17,11.62-15.6,25.52-22.73,38.5-15.59,28.87-36.98,56.93-67.65,70.54-9.84,4.36-22.84,6.84-32.56,4.08-11.28-2.82-15.02-12.21-7.39-20.07,7.3-7.72,18.02-11.55,27.85-15.25,20.53-7.17,43.67-15.76,54.92-35.21,16.24-27-1.49-52.61-23.92-71.49-22.42-19.67-54.27-26.44-83.1-19.68-97.81,23.3-116.23,149.93-38.81,209.38,40.17,29.78,103.77,31.21,145.82,4.35,11.94-7.51,22.54-17.19,32.66-27.12,13.78-13.32,28.98-30.1,48.46-32.24,40.72-3.78,51.93,57.3,96.88,46.03,8.49-2.13,16.22-6.73,22.88-12.36,11.27-9.55,20.15-22.22,29.53-36.12,5.02-6.85,19.25-30.56,28.5-26.05,10.49,8.1-1.44,49.68,7.76,68.97,6.27,18.38,26.6,29.07,44.26,18.8,38.85-25.29,21.25-94.75,54.3-126.11,8.13-7.63,18.27-9.95,27.34-3.53,9.05,6.41,14.3,17.89,17.22,28.71,9.94,33.41-3.39,78.67,29.61,100.61,25.41,14.27,47.67-5.09,53.5-30.59,2.99-11.9,3.55-24.45,3.55-36.72-.19-21.04-1.92-42.13-6.67-62.66l-.03-.13ZM233.93,442.78c5.1-4.91,11.9-7.89,19.16-9.12,5.54-.93,11.38-.76,16.76.62,11.2,2.52,22.19,12.94,13.14,23.7-9.15,10.78-42.02,16.8-52.35,5.14-5.41-6.18-2.44-14.98,3.2-20.25l.1-.1Z"/>
</svg>